<?xml version="1.0" standalone="no"?>
<!DOCTYPE svg PUBLIC "-//W3C//DTD SVG 20010904//EN"
 "http://www.w3.org/TR/2001/REC-SVG-20010904/DTD/svg10.dtd">
<svg version="1.0" xmlns="http://www.w3.org/2000/svg"
 width="1279.000000pt" height="1279.000000pt" viewBox="0 0 1279.000000 1279.000000"
 preserveAspectRatio="xMidYMid meet">

<g transform="translate(0.000000,1279.000000) scale(0.100000,-0.100000)"
fill="#000000" stroke="none">
<path d="M5935 12784 c-558 -54 -895 -114 -1330 -240 -594 -171 -1207 -457
-1745 -812 -263 -174 -595 -435 -804 -633 -45 -42 -98 -91 -119 -110 -60 -53
-347 -363 -447 -484 -812 -975 -1310 -2143 -1450 -3400 -137 -1236 89 -2486
651 -3595 842 -1664 2375 -2882 4181 -3324 821 -200 1680 -236 2523 -105 1895
294 3577 1452 4541 3125 541 941 822 1946 850 3044 45 1749 -629 3433 -1871
4675 -960 960 -2170 1578 -3515 1795 -340 55 -459 63 -955 65 -258 1 -488 1
-510 -1z m760 -404 c1262 -67 2430 -513 3420 -1305 1291 -1034 2103 -2584
2214 -4230 14 -196 14 -643 0 -837 -116 -1684 -937 -3231 -2273 -4280 -814
-639 -1769 -1050 -2799 -1203 -313 -47 -497 -59 -877 -59 -381 0 -544 11 -875
60 -1489 220 -2835 996 -3780 2179 -668 837 -1097 1832 -1244 2885 -42 299
-54 492 -54 835 0 353 13 539 59 860 255 1774 1298 3336 2849 4265 1004 601
2185 892 3360 830z"/>
<path d="M6075 12044 c-22 -2 -101 -8 -175 -14 -920 -75 -1825 -390 -2606
-906 -331 -218 -594 -433 -884 -724 -437 -436 -781 -910 -1046 -1440 -330
-659 -515 -1312 -586 -2065 -17 -182 -17 -745 0 -935 67 -743 260 -1426 586
-2072 680 -1347 1884 -2372 3325 -2829 579 -184 1165 -268 1796 -256 165 3
347 11 405 17 964 97 1807 393 2588 907 637 419 1189 974 1615 1623 94 144
237 386 237 402 0 4 -15 8 -32 8 -31 0 -50 -20 -268 -276 -129 -152 -332 -389
-450 -528 l-215 -251 -399 -3 -399 -2 -48 -49 c-69 -70 -126 -95 -226 -99 -71
-4 -88 -1 -141 23 -139 62 -217 208 -190 355 28 154 144 258 301 268 102 6
173 -22 250 -100 l59 -58 317 0 318 0 79 93 c44 50 245 287 448 524 l369 433
201 2 201 3 39 90 c47 109 156 393 156 406 0 5 -212 9 -542 9 l-543 0 -363
-400 -362 -400 -381 0 -381 0 -40 -45 c-23 -26 -65 -57 -103 -76 -61 -30 -69
-31 -152 -27 -65 3 -99 10 -131 27 -65 33 -118 87 -149 149 -24 50 -28 69 -28
147 0 79 4 97 27 142 78 148 251 219 400 164 66 -25 137 -77 157 -115 l14 -26
311 1 311 0 360 399 360 399 672 0 672 1 10 38 c29 109 43 170 71 301 16 79
30 152 30 163 0 17 -34 18 -939 18 l-940 0 -36 -37 c-20 -21 -176 -188 -348
-371 l-312 -332 -333 0 -333 0 -49 -50 c-69 -71 -144 -104 -235 -103 -161 2
-280 96 -322 253 -15 58 -15 74 -3 128 25 122 99 208 217 252 117 44 259 7
347 -91 l44 -49 262 0 c247 0 263 1 278 19 10 11 166 178 347 371 l330 350
1034 0 c739 -1 1036 2 1041 10 9 15 30 294 30 398 l0 82 -1756 0 -1756 0 -38
-43 c-21 -23 -62 -56 -91 -72 -50 -28 -62 -30 -154 -30 -92 0 -104 2 -154 30
-107 59 -171 167 -171 289 0 220 206 374 416 311 65 -19 135 -66 165 -110 l24
-35 1759 0 1759 0 -7 133 c-7 134 -22 304 -31 345 l-5 22 -1016 0 -1016 0 -57
-58 c-206 -214 -561 -73 -561 223 0 126 71 240 185 295 42 21 65 25 140 25
110 0 163 -23 241 -102 l51 -53 992 0 c545 0 991 3 991 8 -1 17 -69 324 -90
400 l-22 82 -963 0 -963 0 -118 137 c-66 75 -216 247 -334 382 -118 135 -278
318 -355 406 l-139 160 -78 1 c-100 2 -167 33 -235 108 -66 72 -87 133 -81
239 5 95 27 146 89 208 158 158 427 113 526 -89 24 -49 28 -69 28 -148 l1 -91
200 -229 c109 -126 300 -345 424 -486 l225 -258 832 0 c458 0 833 1 833 3 0 9
-116 300 -155 390 l-47 107 -313 0 -312 0 -612 735 -612 735 -400 0 -400 0
-47 -48 c-66 -67 -129 -96 -222 -100 -132 -6 -242 54 -305 169 -28 50 -30 62
-30 154 0 119 17 162 97 237 129 122 332 116 458 -14 22 -22 40 -44 40 -49 0
-5 212 -9 483 -9 l482 0 613 -735 612 -735 145 0 c80 0 145 4 145 8 0 15 -187
319 -276 450 -778 1140 -1945 1957 -3274 2292 -455 115 -813 160 -1310 165
-184 1 -353 1 -375 -1z m785 -5574 l0 -2630 -2535 0 -2535 0 0 2630 0 2630
2535 0 2535 0 0 -2630z"/>
<path d="M1897 8983 c-4 -3 -7 -1137 -7 -2520 l0 -2513 2430 0 2430 0 0 2520
0 2520 -2423 0 c-1333 0 -2427 -3 -2430 -7z m4733 -2513 l0 -2400 -2310 0
-2310 0 0 2400 0 2400 2310 0 2310 0 0 -2400z"/>
<path d="M2122 6468 l3 -2293 2195 0 2195 0 3 2293 2 2292 -2200 0 -2200 0 2
-2292z m2821 2017 c183 -48 298 -172 314 -339 l6 -66 -142 0 -141 0 0 28 c0
74 -65 129 -163 139 -130 13 -228 -50 -198 -129 12 -33 59 -51 241 -94 276
-65 361 -112 410 -226 34 -79 33 -203 -3 -281 -51 -113 -148 -188 -287 -223
-91 -23 -300 -15 -384 15 -166 59 -257 170 -272 329 l-7 72 142 0 141 0 0 -25
c0 -42 38 -109 73 -130 23 -14 57 -20 125 -23 140 -7 212 28 212 101 0 66 -28
81 -254 132 -227 52 -309 91 -364 171 -68 101 -69 270 -2 379 49 79 162 155
262 174 72 14 229 12 291 -4z m-1683 -145 l0 -130 -275 0 -275 0 0 -95 0 -95
240 0 240 0 0 -125 0 -125 -240 0 -240 0 0 -230 0 -230 -145 0 -145 0 0 580 0
580 420 0 420 0 0 -130z m670 38 c17 -51 57 -163 87 -248 30 -85 80 -225 110
-310 30 -85 81 -230 114 -322 32 -92 59 -172 59 -178 0 -6 -57 -10 -154 -10
l-155 0 -34 108 -35 107 -183 0 -183 0 -35 -107 -35 -108 -154 0 c-143 0 -154
1 -147 18 3 9 31 87 61 172 31 85 77 216 104 290 46 127 194 543 227 638 l15
42 153 0 152 0 33 -92z m2330 -38 l0 -130 -165 0 -165 0 0 -450 0 -450 -145 0
-145 0 0 450 0 450 -167 2 -168 3 -3 128 -3 127 481 0 480 0 0 -130z m-1615
-1437 c-4 -10 -52 -137 -107 -283 -55 -146 -129 -341 -165 -435 -35 -93 -71
-189 -80 -212 l-15 -43 -133 0 -134 0 25 63 c27 67 294 776 328 870 l21 57
134 0 c123 0 133 -1 126 -17z m582 -240 l333 -128 0 -116 0 -115 -347 -133
c-192 -74 -369 -142 -396 -152 l-48 -19 3 147 3 146 172 61 c95 34 173 63 173
66 0 3 -78 32 -173 65 l-172 61 -3 147 -3 146 63 -24 c35 -13 213 -81 395
-152z m-1329 26 l-3 -142 -172 -61 c-95 -33 -173 -63 -173 -66 0 -3 78 -33
173 -67 l172 -61 3 -133 c1 -73 1 -138 -2 -145 -3 -7 -138 40 -395 139 l-391
150 0 117 0 117 173 66 c94 36 264 102 377 146 113 44 213 80 223 80 16 1 17
-10 15 -140z m1015 -1114 c182 -38 326 -189 344 -359 l6 -56 -136 0 -135 0
-16 48 c-22 65 -40 89 -88 113 -61 31 -161 24 -212 -14 -78 -60 -120 -217 -99
-375 12 -91 32 -138 78 -184 55 -53 120 -69 199 -47 52 14 91 57 117 130 l22
59 133 0 c153 0 145 6 119 -93 -35 -133 -130 -254 -239 -306 -157 -75 -380
-56 -515 43 -80 59 -131 134 -172 252 -21 61 -24 86 -24 224 0 172 11 226 68
334 101 192 314 281 550 231z m-1603 -124 c0 -86 -3 -120 -12 -123 -7 -2 -77
-4 -155 -3 l-143 1 0 -428 0 -428 -140 0 -140 0 0 428 0 427 -152 0 -153 0 -3
123 -3 122 451 0 450 0 0 -119z m888 -3 l-3 -123 -270 0 -270 0 0 -80 0 -80
245 0 245 0 3 -117 3 -118 -248 -2 -248 -3 -3 -102 -3 -103 291 0 291 0 -3
-122 -3 -123 -422 -3 -423 -2 0 550 0 550 410 0 411 0 -3 -122z m1452 -78 l0
-200 170 0 170 0 0 200 0 200 140 0 140 0 -2 -547 -3 -548 -137 -3 -138 -3 0
230 0 230 -27 3 c-16 2 -92 2 -170 0 l-143 -3 0 -230 0 -229 -140 0 -140 0 0
550 0 550 140 0 140 0 0 -200z"/>
<path d="M3736 8070 c-24 -59 -92 -280 -88 -285 5 -5 192 -8 192 -2 0 1 -22
70 -49 152 -28 84 -52 143 -55 135z"/>
<path d="M8545 10615 c-5 -2 -22 -6 -37 -9 -37 -8 -98 -63 -114 -103 -60 -142
74 -294 221 -253 45 13 109 67 120 101 6 18 28 19 483 19 l477 0 30 -38 c16
-20 292 -351 613 -734 l583 -698 179 0 c200 0 188 -5 181 77 l-3 43 -147 0
c-80 0 -151 4 -157 8 -5 4 -205 241 -444 527 -239 286 -513 613 -608 728
l-174 207 -502 1 -501 0 -30 42 c-17 22 -44 49 -60 58 -30 17 -91 30 -110 24z
m59 -136 c17 -13 26 -30 26 -49 0 -29 -38 -70 -65 -70 -27 0 -65 41 -65 70 0
29 38 70 65 70 7 0 24 -9 39 -21z"/>
<path d="M8771 9532 c-125 -63 -135 -243 -18 -320 34 -23 51 -27 109 -26 l68
0 333 -375 c182 -206 407 -459 498 -561 l165 -185 677 -3 677 -2 0 60 0 60
-648 0 -648 0 -479 541 c-361 406 -479 546 -477 562 14 117 14 124 -7 165 -12
23 -40 56 -63 72 -34 25 -51 30 -97 30 -34 0 -70 -7 -90 -18z m133 -124 c9
-12 16 -31 16 -42 0 -28 -39 -66 -67 -66 -52 0 -82 72 -46 112 23 26 78 24 97
-4z"/>
<path d="M9576 7470 c-41 -13 -93 -66 -112 -117 -46 -119 44 -243 176 -243 28
0 64 7 79 14 30 16 91 80 91 96 0 6 275 11 736 12 l737 3 0 55 0 55 -737 3
c-546 1 -736 5 -736 14 0 24 -54 81 -94 99 -44 20 -93 23 -140 9z m104 -128
c45 -36 17 -112 -42 -112 -33 0 -68 31 -68 62 0 29 38 68 66 68 12 0 32 -8 44
-18z"/>
<path d="M8145 6637 c-84 -33 -125 -92 -125 -178 0 -170 214 -249 323 -119 14
16 28 39 32 50 6 20 16 20 1457 22 l1451 3 0 55 0 55 -1447 3 -1446 2 -48 49
c-63 65 -128 85 -197 58z m99 -128 c32 -25 35 -68 6 -94 -41 -37 -110 -9 -110
44 0 31 8 44 35 59 28 16 39 15 69 -9z"/>
<path d="M9868 5613 c-36 -38 -96 -102 -134 -143 -38 -42 -119 -129 -180 -195
-61 -66 -153 -166 -205 -222 l-94 -103 -340 0 -341 0 -17 35 c-22 47 -86 87
-147 93 -138 13 -239 -131 -182 -260 36 -82 119 -122 217 -104 39 8 110 65
120 97 6 18 20 19 374 19 l369 0 283 308 c156 169 308 333 338 365 l54 57 649
0 648 0 0 60 0 60 -674 0 -674 0 -64 -67z m-1428 -673 c42 -42 14 -110 -46
-110 -58 0 -83 63 -42 107 26 28 61 30 88 3z"/>
<path d="M10379 4674 c-79 -86 -157 -171 -174 -190 -16 -18 -118 -128 -225
-243 l-195 -211 -381 0 -381 0 -28 40 c-102 148 -337 75 -337 -105 0 -75 49
-150 115 -174 81 -31 181 2 225 73 l27 45 406 1 406 0 164 178 c90 97 178 193
196 212 18 19 111 119 205 222 l173 187 353 0 352 1 0 60 0 60 -378 0 -378 0
-145 -156z m-1489 -664 c40 -40 11 -110 -47 -110 -37 0 -63 27 -63 66 0 57 69
85 110 44z"/>
<path d="M10750 3509 c-223 -259 -425 -494 -450 -524 l-45 -54 -392 0 -392 -1
-23 41 c-67 119 -247 123 -318 7 -80 -132 32 -306 184 -284 50 8 114 50 135
89 l14 27 423 0 423 0 28 34 c15 18 219 254 452 525 399 462 426 491 457 491
37 0 41 9 35 77 l-3 43 -62 0 -61 -1 -405 -470z m-1437 -570 c30 -16 37 -28
37 -66 0 -64 -80 -83 -117 -27 -21 32 -9 73 27 91 31 15 27 15 53 2z"/>
</g>
</svg>
